<?xml version="1.0" encoding="utf-8"?>
<!DOCTYPE svg PUBLIC "-//W3C//DTD SVG 1.1//EN" "http://www.w3.org/Graphics/SVG/1.1/DTD/svg11.dtd">
<svg version="1.1" id="Layer_1" xmlns="http://www.w3.org/2000/svg" xmlns:xlink="http://www.w3.org/1999/xlink" x="0px" y="0px"
	 viewBox="243 379.5 570 33" enable-background="new 243 379.5 570 33" xml:space="preserve">
<path id="yarn_strand" fill="none" stroke="#09090a" stroke-width="3px" stroke-linecap="round" stroke-linejoin="round" stroke-miterlimit="10" d="
	M249,403.8c4.1-0.1,8.2-1.2,11.7-3.3c0.1,2,0.2,4,0.4,6c5.9-4,11.9-7.8,18-11.6c0.2,5.9,8.2,9.9,13.1,6.6c1.8-1.2,3.2-3.2,5.3-4
	c4.2-1.6,8.3,2.2,12.7,3.2c7.8,1.7,15.1-6.1,23.1-5.1c3.4,0.4,6.4,2.4,9.7,3.6c15.4,5.5,30.8-8.2,47.1-9.6
	c13.5-1.1,26.5,6.4,40.1,6.4c18.1,0,35.5-13.3,53-8.7c-0.2,3.7,22.8,5.5,22.6,9.1c12.7,1.5,26.5,2.5,37.9-3.1
	c3.7-1.8,7.1-4.3,11.1-5.7c3.3-1.1,6.9-1.3,10.4-1.5c15.2-0.9,31-1.6,45.2,3.8c4.4,1.7,8.6,3.9,13,5.5
	c33.5,12.2,73.8-12.9,105.4,3.6c2.5,1.3,4.9,2.9,7.7,3.4c5.4,1,10.5-2.3,15.3-4.8c16.9-8.8,37.7-10,55.5-3.2"/>
</svg>
