<?xml version="1.0" encoding="utf-8"?>
<!-- Generator: Adobe Illustrator 28.0.0, SVG Export Plug-In . SVG Version: 6.00 Build 0)  -->
<svg version="1.1" id="Layer_1" xmlns="http://www.w3.org/2000/svg" xmlns:xlink="http://www.w3.org/1999/xlink" x="0px" y="0px"
	 viewBox="0 0 400 400" style="enable-background:new 0 0 400 400;" xml:space="preserve">
<style type="text/css">
	.st0{fill:none;}
	.st1{fill:#0F0F0F;}
	.st2{fill:#e4d4f4;}
	.st3{fill:#c4b7e0;}
</style>
<path class="st0" d="M189,1.1c-2.2,0.4-4.4,0.8-6.5,1.1C184.7,2.4,186.9,2.3,189,1.1z"/>
<path class="st0" d="M1.1,216.2c0.4,1.8,0.7,3.5,1.1,5.3C2.3,219.7,2.3,217.9,1.1,216.2z"/>
<path class="st0" d="M399.1,172c-0.3-1.3-0.7-2.6-1-3.8C398.1,169.5,398.1,170.8,399.1,172z"/>
<path class="st1" d="M398.1,168.1c-2.3-8.9-4.5-17.8-7-26.7c-13.9-48.2-43.6-84.3-86-110.4c-28.4-17.5-59.4-26.9-92.9-28
	c-1,0-2-1.2-3-1.9c-6.7,0-13.5,0-20.2,0c-2.1,1.2-4.3,1.2-6.5,1.1c-16.2,2.8-32.6,5-48.3,10.7C107.7,22.6,84.7,37.2,63.8,56
	C29.6,86.8,12.5,126.3,3.2,170c-1,4.6,2.3,9.9-2.1,14c0,10.7,0,21.4,0,32.2c1.2,1.7,1.2,3.5,1.1,5.3c3.5,17.5,6,35.2,13.1,51.7
	c12.2,28.5,28.8,53.7,52.1,75c14,12.8,29.7,23.1,45.6,32.1c18.2,10.2,39.8,14.1,60.9,16.8c2.4,0.3,5.5-1.6,7,2c12.8,0,25.6,0,38.4,0
	c18.7-4.6,37.7-7.9,55.8-15.5c41.7-17.7,72.9-46.4,96.6-84.5c14.4-23.2,20.9-49,27.4-74.9c0-17.4,0-34.8,0-52.3
	C398.1,170.8,398.1,169.5,398.1,168.1z M303.7,41.3c10.8,7.2,2.8,17,1,24c-10.1,39.3-33.5,71.9-56.2,104.8c-2.8,4-5.5,2.2-9.1,1
	C174.9,149.9,130,94.3,110.5,32.6C177,0.3,241.3-0.2,303.7,41.3z M77.9,331.9C46,302.8,26,267.3,17.9,225.2c-0.8-4.2-0.5-8.6-0.8-13
	c-4.9-21-0.2-41.2,4.6-61.9c13.4,55.3,51.9,83.5,103.7,97.5c2.8,0.8,6.5,2.3,8.9-1.4l0,0l0,0c-24.4-12.6-50.2-23.5-70.7-42.1
	c-14.6-13.3-22.1-32-31.2-49.5c-8-15.5-3.2-24.1,2.9-41.3c3.1-10.1,8.8-18.7,15.7-27c15.6,85.4,92.9,123,162.6,127
	c-10.1-3.7-20.4-7.4-30.7-11.2l0,0c-30.3-9.6-59.5-21.9-82.7-43.8C78.5,138,62.6,112.1,60,82.4c-0.6-6.8,1.2-9.5,15.7-23.2
	c7.7-9.7,18.1-15.9,28-21.8c21.7,65.9,60.3,114.5,128.4,137.4c16.8,5.6,23.4-2.4,31-11.7c23-27.7,41-58.2,50.2-93.5
	c1.6-6-2.8-13.6,4.8-18.6c11.8,9.5,22.1,20.4,30.8,32.4c3.7,5.1-0.9,12.1-2.8,17.4c-7.1,19.7-14,39.6-23.8,58.3
	c0.2-0.3,0.4-0.5,0.6-0.7c-10.9,24.3-39.8,66.6-57,86.5c-40.8,47.4-95.3,73.2-152.2,95.8C97.5,347.2,88.5,341.6,77.9,331.9z
	 M105.7,351.4c24.4-7.2,47.1-14.9,69-24.8l0,0c33.3-17.1,64.8-36.8,90.4-64.6c42.1-45.7,72-98.1,87.6-158.3
	c0.8-3.1,1.7-6.2,2.9-10.6c10.2,14.9,18.2,29.6,21.5,46.5c4.8,14.7-1.7,28.5-4.8,42c-10.4,45.9-29.1,87.8-64.7,120.7
	c-29.7,27.5-66.5,40.6-104,52.5c-10.6,3.4-22.2,4.5-32.2,9.1C146.8,375.4,127.3,364.4,105.7,351.4z M350.2,306.9
	c-45,57.8-106.4,77.3-179.3,68c113.4-22.7,193-80.5,213.6-200.5C390.8,223.4,380.2,268.4,350.2,306.9z"/>
<path class="st2" d="M161.4,292.2c7,1.2,13.7,0.2,20.5-3c45.6-21.5,81-54.9,112.4-93.3c4.6-5.7,10.4-15.7,28-36.7
	c9.8-18.6,16.7-38.5,23.8-58.3c1.9-5.3,6.5-12.3,2.8-17.4c-8.8-12-19-22.9-30.8-32.4c-7.6,5-3.2,12.6-4.8,18.6
	c-9.3,35.2-27.3,65.7-50.2,93.5c-7.7,9.3-14.3,17.3-31,11.7c-68.1-23-106.7-71.6-128.4-137.4c-9.9,5.8-20.3,12-28,21.8
	c-1.5,38.9,15.4,69.9,40.6,98.2c15.7,17.7,35,28.6,56.1,37.6c3.9,1.7,8.4,2.9,10.5,7.3l0,0l0,0c10.3,3.7,20.6,7.5,30.7,11.2
	c-69.7-4-147-41.6-162.6-127c-7,8.4-12.6,16.9-15.7,27c3.9,11.6,8.1,23.2,11.6,34.9c9.6,32,35.3,50.7,58.6,71.7
	c12.1,10.9,26.7,16.9,40.3,26.3c-3.8,0-7.6,0-11.4,0l0,0c-2.5,3.7-6.1,2.2-8.9,1.4c-51.8-14.1-90.3-42.3-103.7-97.5
	c-4.9,20.6-9.5,40.9-4.6,61.9c20.4,19.3,40.8,38.6,66.5,51.3C108.5,275.9,133.7,287.5,161.4,292.2z"/>
<path class="st2" d="M239.4,171c3.6,1.2,6.3,3,9.1-1c22.7-32.9,46.1-65.5,56.2-104.8c1.8-7,9.8-16.8-1-24
	C241.3-0.2,177,0.3,110.5,32.6C130,94.3,174.9,149.9,239.4,171z"/>
<path class="st3" d="M266,245c17.2-20,46.1-62.3,57-86.5c-0.2,0.3-0.4,0.5-0.6,0.7c-17.6,21-23.4,31-28,36.7
	c-31.4,38.4-66.9,71.8-112.4,93.3c-6.8,3.2-13.5,4.2-20.5,3c-27.8-4.6-53-16.3-77.9-28.7c-25.6-12.7-46-32-66.5-51.3
	c0.2,4.3-0.1,8.8,0.8,13c8.1,42.2,28.2,77.7,60,106.7c10.6,9.7,19.7,15.3,36,8.8C170.8,318.2,225.2,292.4,266,245z"/>
<path class="st3" d="M203.6,354.8c37.5-11.9,74.3-25,104-52.5c35.6-32.9,54.3-74.8,64.7-120.7c3.1-13.5,9.5-27.3,4.8-42
	c-9.1,48.4-32.9,86.9-72,118.3c-34.3,27.5-72.9,45.7-112.1,63.6c-5.7,2.6-12.2,3.5-18.3,5.1l0,0l0,0c-21.9,9.9-44.6,17.5-69,24.8
	c21.6,13,41.1,24,65.7,12.5C181.4,359.3,193,358.2,203.6,354.8z"/>
<path class="st2" d="M193,321.5c39.2-17.8,77.8-36,112.1-63.6c39.1-31.4,62.9-69.9,72-118.3c-3.2-17-11.3-31.6-21.5-46.5
	c-1.2,4.4-2.1,7.5-2.9,10.6c-15.6,60.2-45.5,112.7-87.6,158.3c-25.6,27.8-57,47.5-90.4,64.6l0,0C180.8,325,187.3,324.1,193,321.5z"
	/>
<path class="st3" d="M170.9,374.9c72.9,9.3,134.3-10.2,179.3-68c30-38.5,40.6-83.5,34.3-132.5C363.9,294.5,284.3,352.2,170.9,374.9z
	"/>
<path class="st3" d="M105.5,220.2c-23.3-21-48.9-39.7-58.6-71.7c-3.5-11.7-7.7-23.3-11.6-34.9c-6.1,17.2-10.9,25.8-2.9,41.3
	c9.1,17.5,16.6,36.2,31.2,49.5c20.4,18.6,46.2,29.5,70.7,42.1l0,0c3.8,0,7.6,0,11.4,0C132.2,237.1,117.6,231.1,105.5,220.2z"/>
<path class="st3" d="M172.4,195.1c-21.1-9-40.4-20-56.1-37.6C91,129.2,74.2,98.2,75.7,59.3C61.2,72.9,59.4,75.6,60,82.4
	c2.6,29.7,18.5,55.6,40.2,76.1c23.2,22,52.4,34.3,82.7,43.8l0,0C180.8,198,176.4,196.7,172.4,195.1z"/>
</svg>
